<mxfile host="app.diagrams.net" modified="2022-03-02T08:55:06.474Z" agent="5.0 (Windows NT 10.0; Win64; x64) AppleWebKit/537.36 (KHTML, like Gecko) Chrome/98.0.4758.102 Safari/537.36" etag="LB06RBac85VPNUhSfI0c" version="16.6.2" type="github">
  <diagram id="xSjNO9LXUAEmSgL8BfVh" name="Page-1">
    <mxGraphModel dx="1422" dy="772" grid="0" gridSize="10" guides="1" tooltips="1" connect="1" arrows="1" fold="1" page="1" pageScale="1" pageWidth="827" pageHeight="1169" math="0" shadow="0">
      <root>
        <mxCell id="0" />
        <mxCell id="1" parent="0" />
        <mxCell id="VuT9dH6Unuhh7oiV6FOk-54" style="edgeStyle=orthogonalEdgeStyle;rounded=0;orthogonalLoop=1;jettySize=auto;html=1;exitX=0.5;exitY=1;exitDx=0;exitDy=0;entryX=0.5;entryY=0;entryDx=0;entryDy=0;" edge="1" parent="1" source="VuT9dH6Unuhh7oiV6FOk-2" target="VuT9dH6Unuhh7oiV6FOk-50">
          <mxGeometry relative="1" as="geometry" />
        </mxCell>
        <mxCell id="VuT9dH6Unuhh7oiV6FOk-2" value="" style="swimlane;startSize=0;" vertex="1" parent="1">
          <mxGeometry x="138" y="140" width="259" height="76" as="geometry" />
        </mxCell>
        <mxCell id="VuT9dH6Unuhh7oiV6FOk-3" value="GM" style="rounded=0;whiteSpace=wrap;html=1;" vertex="1" parent="VuT9dH6Unuhh7oiV6FOk-2">
          <mxGeometry x="8" y="25" width="90" height="30" as="geometry" />
        </mxCell>
        <mxCell id="VuT9dH6Unuhh7oiV6FOk-43" value="groupproxy" style="rounded=0;whiteSpace=wrap;html=1;" vertex="1" parent="VuT9dH6Unuhh7oiV6FOk-2">
          <mxGeometry x="107.5" y="25" width="90" height="30" as="geometry" />
        </mxCell>
        <mxCell id="VuT9dH6Unuhh7oiV6FOk-44" value="其他" style="rounded=0;whiteSpace=wrap;html=1;" vertex="1" parent="VuT9dH6Unuhh7oiV6FOk-2">
          <mxGeometry x="204" y="25" width="46.5" height="30" as="geometry" />
        </mxCell>
        <mxCell id="VuT9dH6Unuhh7oiV6FOk-70" style="edgeStyle=orthogonalEdgeStyle;rounded=0;orthogonalLoop=1;jettySize=auto;html=1;exitX=1;exitY=0.5;exitDx=0;exitDy=0;exitPerimeter=0;entryX=0.5;entryY=0;entryDx=0;entryDy=0;" edge="1" parent="1" source="VuT9dH6Unuhh7oiV6FOk-7" target="VuT9dH6Unuhh7oiV6FOk-60">
          <mxGeometry relative="1" as="geometry" />
        </mxCell>
        <mxCell id="VuT9dH6Unuhh7oiV6FOk-71" style="edgeStyle=orthogonalEdgeStyle;rounded=0;orthogonalLoop=1;jettySize=auto;html=1;exitX=1;exitY=0.5;exitDx=0;exitDy=0;exitPerimeter=0;entryX=0.546;entryY=0;entryDx=0;entryDy=0;entryPerimeter=0;" edge="1" parent="1" source="VuT9dH6Unuhh7oiV6FOk-7" target="VuT9dH6Unuhh7oiV6FOk-66">
          <mxGeometry relative="1" as="geometry" />
        </mxCell>
        <mxCell id="VuT9dH6Unuhh7oiV6FOk-7" value="kafka" style="strokeWidth=2;html=1;shape=mxgraph.flowchart.direct_data;whiteSpace=wrap;direction=south;" vertex="1" parent="1">
          <mxGeometry x="237.5" y="398" width="60" height="100" as="geometry" />
        </mxCell>
        <mxCell id="VuT9dH6Unuhh7oiV6FOk-8" value="" style="endArrow=none;dashed=1;html=1;dashPattern=1 3;strokeWidth=2;rounded=0;" edge="1" parent="1">
          <mxGeometry width="50" height="50" relative="1" as="geometry">
            <mxPoint x="59" y="236" as="sourcePoint" />
            <mxPoint x="769" y="236" as="targetPoint" />
          </mxGeometry>
        </mxCell>
        <mxCell id="VuT9dH6Unuhh7oiV6FOk-9" value="" style="endArrow=none;dashed=1;html=1;dashPattern=1 3;strokeWidth=2;rounded=0;" edge="1" parent="1">
          <mxGeometry width="50" height="50" relative="1" as="geometry">
            <mxPoint x="60" y="694" as="sourcePoint" />
            <mxPoint x="770" y="694" as="targetPoint" />
          </mxGeometry>
        </mxCell>
        <mxCell id="VuT9dH6Unuhh7oiV6FOk-10" value="&lt;font style=&quot;font-size: 18px&quot;&gt;数据源&lt;/font&gt;" style="text;html=1;strokeColor=none;fillColor=none;align=center;verticalAlign=middle;whiteSpace=wrap;rounded=0;" vertex="1" parent="1">
          <mxGeometry x="56" y="166" width="60" height="30" as="geometry" />
        </mxCell>
        <mxCell id="VuT9dH6Unuhh7oiV6FOk-11" value="&lt;span style=&quot;font-size: 18px&quot;&gt;直播数据订阅系统&lt;/span&gt;" style="text;html=1;strokeColor=none;fillColor=none;align=center;verticalAlign=middle;whiteSpace=wrap;rounded=0;" vertex="1" parent="1">
          <mxGeometry x="60" y="430" width="80" height="32" as="geometry" />
        </mxCell>
        <mxCell id="VuT9dH6Unuhh7oiV6FOk-13" value="" style="endArrow=none;dashed=1;html=1;rounded=0;fontSize=18;strokeColor=#00FF00;" edge="1" parent="1">
          <mxGeometry width="50" height="50" relative="1" as="geometry">
            <mxPoint x="438" y="1061" as="sourcePoint" />
            <mxPoint x="438" y="53" as="targetPoint" />
          </mxGeometry>
        </mxCell>
        <mxCell id="VuT9dH6Unuhh7oiV6FOk-84" style="edgeStyle=orthogonalEdgeStyle;rounded=0;orthogonalLoop=1;jettySize=auto;html=1;exitX=1;exitY=0.5;exitDx=0;exitDy=0;exitPerimeter=0;entryX=0.5;entryY=0;entryDx=0;entryDy=0;" edge="1" parent="1" source="VuT9dH6Unuhh7oiV6FOk-17" target="VuT9dH6Unuhh7oiV6FOk-78">
          <mxGeometry relative="1" as="geometry" />
        </mxCell>
        <mxCell id="VuT9dH6Unuhh7oiV6FOk-85" style="edgeStyle=orthogonalEdgeStyle;rounded=0;orthogonalLoop=1;jettySize=auto;html=1;exitX=1;exitY=0.5;exitDx=0;exitDy=0;exitPerimeter=0;entryX=0.5;entryY=0;entryDx=0;entryDy=0;" edge="1" parent="1" source="VuT9dH6Unuhh7oiV6FOk-17" target="VuT9dH6Unuhh7oiV6FOk-81">
          <mxGeometry relative="1" as="geometry" />
        </mxCell>
        <mxCell id="VuT9dH6Unuhh7oiV6FOk-17" value="kafka" style="strokeWidth=2;html=1;shape=mxgraph.flowchart.direct_data;whiteSpace=wrap;direction=south;" vertex="1" parent="1">
          <mxGeometry x="577.5" y="396" width="60" height="100" as="geometry" />
        </mxCell>
        <mxCell id="VuT9dH6Unuhh7oiV6FOk-21" value="&lt;font style=&quot;font-size: 24px&quot;&gt;亚洲&lt;/font&gt;" style="text;html=1;strokeColor=none;fillColor=none;align=center;verticalAlign=middle;whiteSpace=wrap;rounded=0;fontSize=18;" vertex="1" parent="1">
          <mxGeometry x="250" y="90" width="60" height="30" as="geometry" />
        </mxCell>
        <mxCell id="VuT9dH6Unuhh7oiV6FOk-22" value="&lt;font style=&quot;font-size: 24px&quot;&gt;欧洲&lt;/font&gt;" style="text;html=1;strokeColor=none;fillColor=none;align=center;verticalAlign=middle;whiteSpace=wrap;rounded=0;fontSize=18;" vertex="1" parent="1">
          <mxGeometry x="582" y="90" width="60" height="30" as="geometry" />
        </mxCell>
        <mxCell id="VuT9dH6Unuhh7oiV6FOk-57" style="edgeStyle=orthogonalEdgeStyle;rounded=0;orthogonalLoop=1;jettySize=auto;html=1;exitX=0.5;exitY=1;exitDx=0;exitDy=0;entryX=0.5;entryY=0;entryDx=0;entryDy=0;" edge="1" parent="1" source="VuT9dH6Unuhh7oiV6FOk-46" target="VuT9dH6Unuhh7oiV6FOk-55">
          <mxGeometry relative="1" as="geometry" />
        </mxCell>
        <mxCell id="VuT9dH6Unuhh7oiV6FOk-46" value="" style="swimlane;startSize=0;" vertex="1" parent="1">
          <mxGeometry x="478" y="140" width="259" height="76" as="geometry" />
        </mxCell>
        <mxCell id="VuT9dH6Unuhh7oiV6FOk-47" value="GM" style="rounded=0;whiteSpace=wrap;html=1;" vertex="1" parent="VuT9dH6Unuhh7oiV6FOk-46">
          <mxGeometry x="8" y="25" width="84" height="29" as="geometry" />
        </mxCell>
        <mxCell id="VuT9dH6Unuhh7oiV6FOk-48" value="groupproxy" style="rounded=0;whiteSpace=wrap;html=1;" vertex="1" parent="VuT9dH6Unuhh7oiV6FOk-46">
          <mxGeometry x="107.5" y="25" width="90" height="30" as="geometry" />
        </mxCell>
        <mxCell id="VuT9dH6Unuhh7oiV6FOk-49" value="其他" style="rounded=0;whiteSpace=wrap;html=1;" vertex="1" parent="VuT9dH6Unuhh7oiV6FOk-46">
          <mxGeometry x="204" y="25" width="46.5" height="30" as="geometry" />
        </mxCell>
        <mxCell id="VuT9dH6Unuhh7oiV6FOk-58" style="edgeStyle=orthogonalEdgeStyle;rounded=0;orthogonalLoop=1;jettySize=auto;html=1;exitX=0.5;exitY=1;exitDx=0;exitDy=0;" edge="1" parent="1" source="VuT9dH6Unuhh7oiV6FOk-50" target="VuT9dH6Unuhh7oiV6FOk-7">
          <mxGeometry relative="1" as="geometry" />
        </mxCell>
        <mxCell id="VuT9dH6Unuhh7oiV6FOk-50" value="" style="swimlane;startSize=0;" vertex="1" parent="1">
          <mxGeometry x="138" y="260" width="259" height="76" as="geometry" />
        </mxCell>
        <mxCell id="VuT9dH6Unuhh7oiV6FOk-52" value="broom_kafka_producer" style="rounded=0;whiteSpace=wrap;html=1;" vertex="1" parent="VuT9dH6Unuhh7oiV6FOk-50">
          <mxGeometry x="59.75" y="21" width="139.5" height="34" as="geometry" />
        </mxCell>
        <mxCell id="VuT9dH6Unuhh7oiV6FOk-59" style="edgeStyle=orthogonalEdgeStyle;rounded=0;orthogonalLoop=1;jettySize=auto;html=1;exitX=0.5;exitY=1;exitDx=0;exitDy=0;entryX=0;entryY=0.5;entryDx=0;entryDy=0;entryPerimeter=0;" edge="1" parent="1" source="VuT9dH6Unuhh7oiV6FOk-55" target="VuT9dH6Unuhh7oiV6FOk-17">
          <mxGeometry relative="1" as="geometry" />
        </mxCell>
        <mxCell id="VuT9dH6Unuhh7oiV6FOk-55" value="" style="swimlane;startSize=0;" vertex="1" parent="1">
          <mxGeometry x="478" y="260" width="259" height="76" as="geometry" />
        </mxCell>
        <mxCell id="VuT9dH6Unuhh7oiV6FOk-56" value="broom_kafka_producer" style="rounded=0;whiteSpace=wrap;html=1;" vertex="1" parent="VuT9dH6Unuhh7oiV6FOk-55">
          <mxGeometry x="59.75" y="21" width="139.5" height="34" as="geometry" />
        </mxCell>
        <mxCell id="VuT9dH6Unuhh7oiV6FOk-99" style="edgeStyle=orthogonalEdgeStyle;rounded=0;orthogonalLoop=1;jettySize=auto;html=1;exitX=0.5;exitY=1;exitDx=0;exitDy=0;entryX=0.5;entryY=0;entryDx=0;entryDy=0;" edge="1" parent="1" source="VuT9dH6Unuhh7oiV6FOk-60" target="VuT9dH6Unuhh7oiV6FOk-86">
          <mxGeometry relative="1" as="geometry" />
        </mxCell>
        <mxCell id="VuT9dH6Unuhh7oiV6FOk-100" value="单播" style="edgeLabel;html=1;align=center;verticalAlign=middle;resizable=0;points=[];" vertex="1" connectable="0" parent="VuT9dH6Unuhh7oiV6FOk-99">
          <mxGeometry x="-0.2545" y="4" relative="1" as="geometry">
            <mxPoint x="-4" as="offset" />
          </mxGeometry>
        </mxCell>
        <mxCell id="VuT9dH6Unuhh7oiV6FOk-60" value="" style="swimlane;startSize=0;" vertex="1" parent="1">
          <mxGeometry x="107" y="540" width="152" height="77" as="geometry" />
        </mxCell>
        <mxCell id="VuT9dH6Unuhh7oiV6FOk-61" value="consumer" style="rounded=0;whiteSpace=wrap;html=1;" vertex="1" parent="VuT9dH6Unuhh7oiV6FOk-60">
          <mxGeometry x="43" y="27" width="71.25" height="36" as="geometry" />
        </mxCell>
        <mxCell id="VuT9dH6Unuhh7oiV6FOk-65" value="Group B" style="text;html=1;align=center;verticalAlign=middle;resizable=0;points=[];autosize=1;strokeColor=none;fillColor=none;" vertex="1" parent="VuT9dH6Unuhh7oiV6FOk-60">
          <mxGeometry x="49" y="5" width="55" height="18" as="geometry" />
        </mxCell>
        <mxCell id="VuT9dH6Unuhh7oiV6FOk-62" value="&lt;span style=&quot;font-size: 18px&quot;&gt;业务&lt;/span&gt;" style="text;html=1;strokeColor=none;fillColor=none;align=center;verticalAlign=middle;whiteSpace=wrap;rounded=0;" vertex="1" parent="1">
          <mxGeometry x="60" y="720" width="80" height="32" as="geometry" />
        </mxCell>
        <mxCell id="VuT9dH6Unuhh7oiV6FOk-101" style="edgeStyle=orthogonalEdgeStyle;rounded=0;orthogonalLoop=1;jettySize=auto;html=1;exitX=0.5;exitY=1;exitDx=0;exitDy=0;entryX=0.5;entryY=0;entryDx=0;entryDy=0;" edge="1" parent="1" source="VuT9dH6Unuhh7oiV6FOk-66" target="VuT9dH6Unuhh7oiV6FOk-69">
          <mxGeometry relative="1" as="geometry" />
        </mxCell>
        <mxCell id="VuT9dH6Unuhh7oiV6FOk-102" style="edgeStyle=orthogonalEdgeStyle;rounded=0;orthogonalLoop=1;jettySize=auto;html=1;exitX=0.5;exitY=1;exitDx=0;exitDy=0;entryX=0.25;entryY=0;entryDx=0;entryDy=0;" edge="1" parent="1" source="VuT9dH6Unuhh7oiV6FOk-66" target="VuT9dH6Unuhh7oiV6FOk-87">
          <mxGeometry relative="1" as="geometry" />
        </mxCell>
        <mxCell id="VuT9dH6Unuhh7oiV6FOk-66" value="" style="swimlane;startSize=0;" vertex="1" parent="1">
          <mxGeometry x="267" y="540" width="152" height="77" as="geometry" />
        </mxCell>
        <mxCell id="VuT9dH6Unuhh7oiV6FOk-67" value="consumer" style="rounded=0;whiteSpace=wrap;html=1;" vertex="1" parent="VuT9dH6Unuhh7oiV6FOk-66">
          <mxGeometry x="43" y="27" width="71.25" height="36" as="geometry" />
        </mxCell>
        <mxCell id="VuT9dH6Unuhh7oiV6FOk-68" value="Group A" style="text;html=1;align=center;verticalAlign=middle;resizable=0;points=[];autosize=1;strokeColor=none;fillColor=none;" vertex="1" parent="VuT9dH6Unuhh7oiV6FOk-66">
          <mxGeometry x="50" y="5" width="54" height="18" as="geometry" />
        </mxCell>
        <mxCell id="VuT9dH6Unuhh7oiV6FOk-69" value="列表" style="rounded=0;whiteSpace=wrap;html=1;" vertex="1" parent="1">
          <mxGeometry x="307.38" y="727" width="71.25" height="36" as="geometry" />
        </mxCell>
        <mxCell id="VuT9dH6Unuhh7oiV6FOk-103" style="edgeStyle=orthogonalEdgeStyle;rounded=0;orthogonalLoop=1;jettySize=auto;html=1;exitX=0.5;exitY=1;exitDx=0;exitDy=0;entryX=0.75;entryY=0;entryDx=0;entryDy=0;" edge="1" parent="1" source="VuT9dH6Unuhh7oiV6FOk-78" target="VuT9dH6Unuhh7oiV6FOk-69">
          <mxGeometry relative="1" as="geometry">
            <Array as="points">
              <mxPoint x="533" y="642" />
              <mxPoint x="361" y="642" />
            </Array>
          </mxGeometry>
        </mxCell>
        <mxCell id="VuT9dH6Unuhh7oiV6FOk-104" style="edgeStyle=orthogonalEdgeStyle;rounded=0;orthogonalLoop=1;jettySize=auto;html=1;exitX=0.5;exitY=1;exitDx=0;exitDy=0;" edge="1" parent="1" source="VuT9dH6Unuhh7oiV6FOk-78" target="VuT9dH6Unuhh7oiV6FOk-87">
          <mxGeometry relative="1" as="geometry" />
        </mxCell>
        <mxCell id="VuT9dH6Unuhh7oiV6FOk-105" value="广播" style="edgeLabel;html=1;align=center;verticalAlign=middle;resizable=0;points=[];" vertex="1" connectable="0" parent="VuT9dH6Unuhh7oiV6FOk-104">
          <mxGeometry x="-0.7324" relative="1" as="geometry">
            <mxPoint as="offset" />
          </mxGeometry>
        </mxCell>
        <mxCell id="VuT9dH6Unuhh7oiV6FOk-78" value="" style="swimlane;startSize=0;" vertex="1" parent="1">
          <mxGeometry x="457" y="540" width="152" height="77" as="geometry" />
        </mxCell>
        <mxCell id="VuT9dH6Unuhh7oiV6FOk-79" value="consumer" style="rounded=0;whiteSpace=wrap;html=1;" vertex="1" parent="VuT9dH6Unuhh7oiV6FOk-78">
          <mxGeometry x="43" y="27" width="71.25" height="36" as="geometry" />
        </mxCell>
        <mxCell id="VuT9dH6Unuhh7oiV6FOk-80" value="Group A" style="text;html=1;align=center;verticalAlign=middle;resizable=0;points=[];autosize=1;strokeColor=none;fillColor=none;" vertex="1" parent="VuT9dH6Unuhh7oiV6FOk-78">
          <mxGeometry x="49" y="5" width="54" height="18" as="geometry" />
        </mxCell>
        <mxCell id="VuT9dH6Unuhh7oiV6FOk-97" style="edgeStyle=orthogonalEdgeStyle;rounded=0;orthogonalLoop=1;jettySize=auto;html=1;exitX=0.5;exitY=1;exitDx=0;exitDy=0;" edge="1" parent="1" source="VuT9dH6Unuhh7oiV6FOk-81" target="VuT9dH6Unuhh7oiV6FOk-88">
          <mxGeometry relative="1" as="geometry" />
        </mxCell>
        <mxCell id="VuT9dH6Unuhh7oiV6FOk-98" value="单播" style="edgeLabel;html=1;align=center;verticalAlign=middle;resizable=0;points=[];" vertex="1" connectable="0" parent="VuT9dH6Unuhh7oiV6FOk-97">
          <mxGeometry x="-0.2585" y="2" relative="1" as="geometry">
            <mxPoint as="offset" />
          </mxGeometry>
        </mxCell>
        <mxCell id="VuT9dH6Unuhh7oiV6FOk-81" value="" style="swimlane;startSize=0;" vertex="1" parent="1">
          <mxGeometry x="617" y="540" width="152" height="77" as="geometry" />
        </mxCell>
        <mxCell id="VuT9dH6Unuhh7oiV6FOk-82" value="consumer" style="rounded=0;whiteSpace=wrap;html=1;" vertex="1" parent="VuT9dH6Unuhh7oiV6FOk-81">
          <mxGeometry x="43" y="27" width="71.25" height="36" as="geometry" />
        </mxCell>
        <mxCell id="VuT9dH6Unuhh7oiV6FOk-83" value="Group B" style="text;html=1;align=center;verticalAlign=middle;resizable=0;points=[];autosize=1;strokeColor=none;fillColor=none;" vertex="1" parent="VuT9dH6Unuhh7oiV6FOk-81">
          <mxGeometry x="49" y="5" width="55" height="18" as="geometry" />
        </mxCell>
        <mxCell id="VuT9dH6Unuhh7oiV6FOk-86" value="推荐" style="rounded=0;whiteSpace=wrap;html=1;" vertex="1" parent="1">
          <mxGeometry x="147.37" y="727" width="71.25" height="36" as="geometry" />
        </mxCell>
        <mxCell id="VuT9dH6Unuhh7oiV6FOk-87" value="列表" style="rounded=0;whiteSpace=wrap;html=1;" vertex="1" parent="1">
          <mxGeometry x="497.38" y="729" width="71.25" height="36" as="geometry" />
        </mxCell>
        <mxCell id="VuT9dH6Unuhh7oiV6FOk-88" value="推荐" style="rounded=0;whiteSpace=wrap;html=1;" vertex="1" parent="1">
          <mxGeometry x="657.37" y="727" width="71.25" height="36" as="geometry" />
        </mxCell>
      </root>
    </mxGraphModel>
  </diagram>
</mxfile>
